<svg xmlns="http://www.w3.org/2000/svg" width="248pt" height="68" viewBox="0 0 248 51"><path d="M30.844 43.578H28.78l-1.004 5.504h-1.172l1-5.504h-2.062l.203-1h5.27zm0 0M35.48 46.188l-.542 2.894H33.82l.543-2.953c.024-.094.035-.191.032-.285a.615.615 0 00-.176-.489.599.599 0 00-.485-.171 1.514 1.514 0 00-1.086.488l-.632 3.41h-1.118l1.204-6.707h1.09l-.344 2.234a2.16 2.16 0 011.23-.37c.399-.016.785.116 1.09.37.262.301.398.692.371 1.09.008.164-.012.328-.059.489zm0 0M37.145 47.016v.203a.99.99 0 00.285.773c.238.18.53.274.828.258.219-.012.43-.063.633-.145a2.36 2.36 0 00.57-.343l-.113 1.148c-.434.184-.903.27-1.375.258a1.896 1.896 0 01-1.43-.547 2.053 2.053 0 01-.547-1.52 2.78 2.78 0 01.774-2.03 2.796 2.796 0 012.062-.833 2.23 2.23 0 011.23.317c.305.203.481.55.461.914.012.515-.25.996-.687 1.261a3.172 3.172 0 01-1.719.458 2.85 2.85 0 01-.972-.172zm.226-.828c.195.058.399.085.602.085.355.012.707-.054 1.03-.203.286-.113.43-.285.43-.515 0-.258-.285-.399-.859-.399-.246.02-.476.121-.66.285-.242.196-.43.454-.543.746zm0 0M47.281 45.441c.242.121.434.325.543.575.145.273.227.578.23.886a1.93 1.93 0 01-.773 1.664c-.547.371-1.402.57-2.578.57l-1.46-.054 1.202-6.504 1.317-.086c1.633 0 2.433.516 2.433 1.602 0 .281-.09.55-.258.773-.16.25-.386.45-.656.574zm-2.261.457l-.43 2.239h.398c.489.02.973-.09 1.407-.317a.972.972 0 00.484-.86c0-.718-.457-1.089-1.43-1.089zm.43-2.406l-.29 1.578h.488c.356.024.711-.078 1-.289a.854.854 0 00.375-.773c0-.371-.343-.57-1.03-.57zm0 0M49.715 47.016v.203c-.02.285.086.566.285.773.227.18.512.274.805.258.222-.012.445-.063.656-.145l.574-.343-.144 1.148c-.434.184-.903.27-1.375.258a1.83 1.83 0 01-1.403-.547 2.05 2.05 0 01-.543-1.52 2.765 2.765 0 01.774-2.03 2.703 2.703 0 012.058-.833c.426-.015.844.094 1.203.317.313.199.497.547.489.914a1.405 1.405 0 01-.715 1.261 3.138 3.138 0 01-1.691.458 2.675 2.675 0 01-.973-.172zm.2-.828c.206.058.417.085.632.085a2.27 2.27 0 001.027-.203c.23-.07.39-.273.403-.515 0-.258-.286-.399-.832-.399-.25.02-.493.121-.684.285-.23.211-.414.465-.547.746zm0 0M56.531 45.64a1.58 1.58 0 00-.976-.484.887.887 0 00-.485.14.368.368 0 00-.199.345c0 .172.172.343.484.488l.747.402a.96.96 0 01.398.371c.113.172.176.371.172.575a1.48 1.48 0 01-.57 1.23 2.359 2.359 0 01-1.52.461 3 3 0 01-1.516-.43l.57-1.004c.286.301.676.485 1.09.516a.922.922 0 00.575-.172.547.547 0 00.199-.46c0-.141-.117-.313-.402-.458l-.743-.402a1.395 1.395 0 01-.488-.43 1.02 1.02 0 01-.172-.57c-.004-.446.211-.863.575-1.117a2.258 2.258 0 011.343-.403c.496.028.985.157 1.434.371zm0 0M60.738 45.21h-1.316l-.457 2.122c-.05.137-.082.285-.086.43 0 .316.2.488.574.488.274-.04.543-.117.8-.23v.976c-.429.125-.87.184-1.316.172-.324.016-.64-.11-.859-.344a1.12 1.12 0 01-.344-.86c.004-.128.024-.253.055-.374l.516-2.38h-.543l.199-.886h.547l.199-.972 1.258-.461-.34 1.433h1.316zm0 0M67.527 43.867a1.687 1.687 0 00-1.03-.375c-.716 0-1.09.258-1.09.805 0 .543.202.484.573.8l.66.575c.16.11.305.246.43.398.098.106.184.223.258.344.09.133.156.277.2.43.058.148.085.304.085.46a1.578 1.578 0 01-.687 1.376 2.678 2.678 0 01-1.719.515 3.647 3.647 0 01-1.66-.37l.371-1.15c.398.298.879.458 1.375.462.281 0 .555-.07.8-.203a.682.682 0 00.317-.575c0-.257-.2-.543-.574-.828l-.688-.547-.457-.37-.23-.317a1.478 1.478 0 01-.172-.43 1.197 1.197 0 01-.055-.457c-.039-.531.176-1.05.57-1.402.434-.383 1-.578 1.579-.547l.8.086c.239.016.47.074.688.172zm0 0M69.246 47.016v.203c-.02.285.082.566.285.773.239.18.531.274.832.258a1.94 1.94 0 00.63-.145c.206-.085.398-.203.573-.343l-.117 1.148c-.433.184-.902.27-1.375.258a1.896 1.896 0 01-1.43-.547 2.05 2.05 0 01-.542-1.52c-.028-.761.265-1.5.8-2.038a2.77 2.77 0 012.032-.825c.433-.015.863.094 1.234.317.305.203.477.55.457.914.012.515-.25.996-.688 1.261a3.172 3.172 0 01-1.718.458 2.85 2.85 0 01-.973-.172zm.227-.828a2.495 2.495 0 001.632-.118c.29-.113.43-.285.43-.515 0-.258-.285-.399-.86-.399a1.175 1.175 0 00-.655.285 1.99 1.99 0 00-.547.746zm0 0M74.688 48.707a.886.886 0 01-.805.43.747.747 0 01-.63-.285.965.965 0 01-.226-.66 7.618 7.618 0 01.2-1.575l.914-4.242h1.09l-.918 4.441a9.836 9.836 0 00-.2 1.348c-.004.152.059.3.172.402.113.09.254.141.403.141zm0 0M76.805 47.016v.203c-.02.285.086.566.289.773a1.2 1.2 0 00.828.258c.219-.012.43-.063.629-.145.207-.085.398-.203.574-.343l-.113 1.148c-.438.18-.907.27-1.375.258a1.9 1.9 0 01-1.434-.547 2.066 2.066 0 01-.543-1.52 2.765 2.765 0 01.774-2.03 2.796 2.796 0 012.062-.833c.43-.015.86.094 1.23.317.305.203.481.55.458.914.015.515-.246.996-.688 1.261a3.163 3.163 0 01-1.719.458 2.675 2.675 0 01-.972-.172zm.23-.828c.195.058.399.085.602.085.355.012.707-.054 1.031-.203.285-.113.43-.285.43-.515 0-.258-.29-.399-.86-.399-.254.02-.496.121-.687.285-.23.204-.406.461-.516.746zm0 0M84.223 45.5a1.575 1.575 0 00-.946-.344 1.488 1.488 0 00-1.203.57c-.328.407-.5.915-.484 1.434-.008.285.094.563.285.774.16.195.406.3.656.289a2.675 2.675 0 001.406-.489l-.144 1.145a3.404 3.404 0 01-1.402.289 1.979 1.979 0 01-1.403-.488 1.772 1.772 0 01-.547-1.375 3.185 3.185 0 01.774-2.207 2.55 2.55 0 012.004-.86c.43-.015.855.082 1.234.285zm0 0M88.145 45.21h-1.317l-.484 2.122c-.031.14-.051.285-.059.43 0 .316.2.488.57.488.278-.04.547-.117.805-.23v.976c-.43.125-.87.184-1.316.172-.324.016-.64-.11-.86-.344a1.12 1.12 0 01-.343-.86c.004-.128.023-.253.054-.374l.516-2.38h-.543l.2-.886h.546l.172-.972 1.285-.461-.344 1.433h1.32zm0 0M89.98 49.082h-1.148l.719-3.871h-.602l.2-.887h1.718zm-.343-6.277a.588.588 0 01.226-.485.602.602 0 01.489-.203.692.692 0 01.515.203.588.588 0 01.227.485.65.65 0 01-.227.488.688.688 0 01-.515.2.657.657 0 01-.489-.2.59.59 0 01-.226-.488zm0 0M91.324 47.305a3.224 3.224 0 01.774-2.18 2.467 2.467 0 011.976-.887 1.993 1.993 0 011.43.489c.34.363.516.847.488 1.343a3.23 3.23 0 01-.773 2.207 2.501 2.501 0 01-2.004.891 1.854 1.854 0 01-1.403-.488 1.745 1.745 0 01-.488-1.375zm1.145-.059c0 .688.289 1.031.86 1.031.464 0 .89-.254 1.116-.66.274-.457.414-.984.403-1.515 0-.633-.285-.946-.887-.946a1.22 1.22 0 00-1.09.63c-.27.44-.406.944-.402 1.46zm0 0M100.203 49.082h-1.176l.547-2.781c.028-.18.047-.364.055-.543 0-.403-.227-.602-.715-.602-.41.012-.797.2-1.059.516l-.632 3.41h-1.118l.66-3.555c.028-.082.04-.172.028-.257a3.057 3.057 0 00-.113-.86l1.09-.2.085.544a2.187 2.187 0 011.461-.516c.973 0 1.457.457 1.457 1.375.008.192-.011.387-.054.575zm0 0M103.781 47.305a3.105 3.105 0 01.801-2.18 2.473 2.473 0 011.977-.887 1.937 1.937 0 011.406.489c.355.351.543.843.515 1.343a3.248 3.248 0 01-.773 2.207c-.5.586-1.238.914-2.008.891a1.839 1.839 0 01-1.402-.488 1.77 1.77 0 01-.516-1.375zm1.145-.059c0 .688.316 1.031.89 1.031.457 0 .875-.254 1.086-.66.29-.449.426-.98.403-1.515 0-.633-.285-.946-.86-.946a1.206 1.206 0 00-1.09.63 2.55 2.55 0 00-.43 1.46zm0 0M112.574 43.438a1.3 1.3 0 00-.601-.145c-.43 0-.715.344-.887 1.031h1.086l-.113.887h-1.118l-.687 4.184a2.009 2.009 0 01-.629 1.117 1.813 1.813 0 01-1.203.43l-.23-.743a1.2 1.2 0 00.886-.86l.719-4.128h-.66l.144-.887h.656c.317-1.289 1.004-1.949 2.094-1.949.27-.012.54.059.774.203zm0 0M116.41 46.703l-.457 2.379h-1.176l1.235-6.504 1.402-.086c1.719 0 2.578.656 2.578 1.946a2.12 2.12 0 01-.773 1.718 3.22 3.22 0 01-2.035.602zm.547-3.125l-.375 2.121c.184.063.379.094.574.086.426.028.852-.097 1.203-.344.29-.21.45-.558.43-.918 0-.687-.375-1.03-1.148-1.03zm0 0M124.059 47.39a1.268 1.268 0 00-.032.344c-.02.453.028.907.145 1.348h-.688c-.199 0-.343-.145-.457-.46a1.922 1.922 0 01-1.402.546 1.505 1.505 0 01-1.207-.43 1.484 1.484 0 01-.426-1.207 3.436 3.436 0 01.828-2.32 2.554 2.554 0 012.063-.973 4.84 4.84 0 011.719.23zm-1.29-2.234a1.31 1.31 0 00-1.175.715 3.042 3.042 0 00-.457 1.633.688.688 0 00.773.773.99.99 0 00.828-.601c.23-.403.461-1.203.633-2.434a2.093 2.093 0 00-.601-.086zm0 0M126.633 49.082h-1.113l.714-3.871h-.601l.172-.887h1.718zm-.313-6.277a.598.598 0 01.2-.485.767.767 0 011.03 0c.138.121.212.301.2.485a.624.624 0 01-.2.488.775.775 0 01-1.03 0 .61.61 0 01-.2-.488zm0 0M131.875 49.082h-1.145l.516-2.781c.031-.18.047-.364.055-.543 0-.403-.227-.602-.684-.602-.422.008-.82.196-1.09.516l-.629 3.41h-1.117l.688-3.555v-.257c0-.29-.04-.579-.117-.86l1.09-.2.085.544a2.218 2.218 0 011.489-.516c.972 0 1.46.457 1.46 1.375a4.767 4.767 0 01-.058.575zm0 0M136.313 45.21h-1.286l-.488 2.122c-.031.14-.05.285-.059.43 0 .316.172.488.547.488.278-.035.547-.113.801-.23v.976a3.997 3.997 0 01-1.289.172 1.174 1.174 0 01-.887-.344 1.121 1.121 0 01-.316-.86 2.02 2.02 0 01.027-.374l.547-2.38h-.547l.172-.886h.547l.2-.972 1.257-.461-.312 1.433h1.289zm0 0M138.148 49.082h-1.117l.715-3.871h-.601l.171-.887h1.72zm-.316-6.277a.598.598 0 01.2-.485.767.767 0 011.03 0c.141.121.211.301.204.485a.64.64 0 01-.203.488.775.775 0 01-1.032 0 .61.61 0 01-.199-.488zm0 0M143.387 49.082h-1.145l.516-2.781c.031-.18.05-.364.058-.543 0-.403-.23-.602-.687-.602a1.465 1.465 0 00-1.09.516l-.629 3.41h-1.117l.687-3.555v-.257c0-.29-.039-.579-.117-.86l1.09-.2.086.544a2.187 2.187 0 011.461-.516c1.004 0 1.488.457 1.488 1.375a2.197 2.197 0 01-.086.575zm0 0M148.512 45.156c.066.172.093.36.086.543.02.41-.082.817-.286 1.176a2.076 2.076 0 01-1 .828 2.104 2.104 0 00-.746.434l.489-.059c.308-.016.61.098.828.317a.965.965 0 01.344.773c.027.508-.2 1-.602 1.316-.398.317-.973.457-1.746.457a2.908 2.908 0 01-.945-.171 3.198 3.198 0 01-.832-.399l.488-.86c.379.294.84.454 1.316.458.832 0 1.235-.23 1.235-.66a.29.29 0 00-.145-.227.869.869 0 00-.371-.145l-.86-.144a.574.574 0 01-.46-.57c0-.145.117-.317.402-.461a1.397 1.397 0 01-.8-.516 1.367 1.367 0 01-.29-.86 2.01 2.01 0 01.633-1.546 2.21 2.21 0 011.633-.602c.36-.011.715.078 1.031.258l.399-.457.66.656zm-2.778 1.145c-.004.199.047.398.145.574a.534.534 0 00.457.227c.316 0 .613-.149.805-.399.203-.262.312-.586.312-.918 0-.43-.2-.629-.656-.629a.937.937 0 00-.774.313 1.124 1.124 0 00-.289.832zm0 0M155.5 43.867a1.687 1.687 0 00-1.031-.375c-.715 0-1.086.258-1.086.805 0 .543.199.484.57.8l.66.575.457.398.23.344c.09.133.157.277.2.43.059.148.09.304.086.46a1.57 1.57 0 01-.688 1.376 2.678 2.678 0 01-1.718.515 3.647 3.647 0 01-1.66-.37l.375-1.15c.394.298.878.458 1.37.462.282 0 .56-.07.805-.203a.678.678 0 00.313-.575c0-.257-.2-.543-.57-.828l-.688-.547-.43-.37-.257-.317a1.289 1.289 0 01-.172-.43c-.051-.144-.07-.3-.059-.457a1.719 1.719 0 01.574-1.402c.434-.383 1-.578 1.574-.547l.801.086c.246.02.489.078.719.172zm0 0M159.824 49.082h-1.117l.086-.344a2.57 2.57 0 01-1.488.43c-.36.023-.711-.102-.973-.344a1.628 1.628 0 01-.285-1.433l.57-3.067h1.117l-.57 3.035c-.023.106-.035.211-.031.317 0 .375.23.574.66.574.32.008.633-.117.86-.344.242-.218.402-.511.456-.832l.489-2.75h1.117zm0 0M161.945 48.965l-.343 1.976h-1.118l.946-5.156a3.265 3.265 0 00-.028-1.347l1.086-.2c.063.145.102.301.114.457.335-.285.761-.449 1.203-.457 1.289 0 1.922.63 1.922 1.864a3.198 3.198 0 01-.774 2.207 2.744 2.744 0 01-2.062.859 2.072 2.072 0 01-.946-.203zm.172-.945a.841.841 0 00.63.203c.503.03.995-.157 1.347-.52.336-.43.5-.973.457-1.516a1.008 1.008 0 00-.258-.718 1.158 1.158 0 00-.773-.258c-.18 0-.36.05-.516.144-.172.075-.328.18-.457.317zm0 0M167.184 48.965l-.344 1.976h-1.113l.972-5.156a3.2 3.2 0 00-.031-1.347l1.09-.2c.035.153.066.305.086.457a2.082 2.082 0 011.23-.457c1.262 0 1.89.63 1.89 1.864a3.198 3.198 0 01-.773 2.207 2.64 2.64 0 01-2.062.859 2.094 2.094 0 01-.945-.203zm.171-.945a.958.958 0 00.66.203c.505.027.993-.16 1.348-.52.325-.437.485-.973.457-1.516a.923.923 0 00-.285-.718 1.077 1.077 0 00-.773-.258c-.184 0-.36.05-.516.144a1.23 1.23 0 00-.43.317zm0 0M173.227 48.707a.884.884 0 01-.801.43.737.737 0 01-.63-.285.968.968 0 01-.23-.66 8.19 8.19 0 01.2-1.575l.89-4.242h1.117l-.918 4.441c-.113.442-.18.891-.199 1.348a.51.51 0 00.172.402c.11.098.254.149.399.141zm0 0M175.574 49.082h-1.113l.715-3.871h-.602l.172-.887h1.719zm-.312-6.277a.598.598 0 01.199-.485.767.767 0 011.031 0c.137.121.211.301.2.485a.624.624 0 01-.2.488.775.775 0 01-1.031 0 .61.61 0 01-.2-.488zm0 0M178.125 47.016v.203c-.02.285.086.566.285.773.238.18.531.274.832.258a1.94 1.94 0 00.63-.145c.206-.085.398-.203.573-.343l-.117 1.148c-.433.184-.902.27-1.371.258a1.9 1.9 0 01-1.434-.547 2.05 2.05 0 01-.543-1.52c-.023-.761.266-1.5.801-2.038a2.77 2.77 0 012.031-.825c.434-.015.864.094 1.235.317.305.203.476.55.457.914.012.515-.25.996-.688 1.261a3.163 3.163 0 01-1.718.458 2.85 2.85 0 01-.973-.172zm.23-.828c.204.058.415.09.63.085a2.11 2.11 0 001-.203c.288-.113.43-.285.43-.515 0-.258-.286-.399-.86-.399a1.175 1.175 0 00-.657.285 1.98 1.98 0 00-.543.746zm0 0M184.941 45.64a1.496 1.496 0 00-.976-.484c-.16 0-.32.047-.457.14a.382.382 0 00-.2.345c0 .172.145.343.458.488l.746.402c.168.09.312.219.43.371.113.172.171.371.171.575.02.484-.207.949-.601 1.23-.43.32-.957.484-1.489.461a3.155 3.155 0 01-1.546-.43l.601-1.004c.281.305.672.493 1.086.516.195.008.39-.05.547-.172a.556.556 0 00.226-.46c0-.141-.144-.313-.43-.458a7.128 7.128 0 01-.714-.402c-.39-.18-.645-.57-.66-1a1.338 1.338 0 01.547-1.117c.394-.27.867-.41 1.343-.403.5.024.985.153 1.434.371zm0 0M189.75 49.082h-1.145l.747-3.871h-.633l.203-.887h1.719zm-.344-6.277a.603.603 0 01.23-.485.692.692 0 01.516-.203.66.66 0 01.489.203.6.6 0 01.226.485.664.664 0 01-.226.488.657.657 0 01-.489.2.688.688 0 01-.515-.2.605.605 0 01-.23-.488zm0 0M194.965 49.082h-1.149l.516-2.781c.047-.176.066-.36.059-.543 0-.403-.23-.602-.688-.602a1.4 1.4 0 00-1.058.516l-.63 3.41h-1.117l.657-3.555a.642.642 0 00.03-.257 3.355 3.355 0 00-.144-.86l1.09-.2.114.544a2.104 2.104 0 011.46-.516c.973 0 1.461.457 1.461 1.375a4.767 4.767 0 01-.058.575zm0 0M201.98 45.21h-1.316l-.46 2.122c-.044.14-.063.285-.056.43 0 .316.172.488.543.488a2.99 2.99 0 00.801-.23v.976a4.28 4.28 0 01-1.316.172 1.109 1.109 0 01-.86-.344 1.12 1.12 0 01-.343-.86c.007-.128.027-.253.058-.374l.516-2.38H199l.203-.886h.543l.2-.972 1.261-.461-.344 1.433h1.317zm0 0M206.848 46.188l-.575 2.894h-1.113l.543-2.953a1.01 1.01 0 00.027-.285.599.599 0 00-.656-.66 1.523 1.523 0 00-1.09.488l-.629 3.41h-1.117l1.203-6.707h1.086l-.343 2.234a2.234 2.234 0 011.234-.37c.394-.016.781.116 1.086.37.266.301.398.692.371 1.09.004.164-.004.324-.027.489zm0 0M208.48 47.016v.203c-.007.285.094.562.286.773.238.18.53.274.832.258a1.94 1.94 0 00.629-.145c.21-.082.402-.195.574-.343l-.117 1.148c-.434.184-.903.27-1.371.258a1.9 1.9 0 01-1.434-.547 2.05 2.05 0 01-.543-1.52c-.035-.761.254-1.5.8-2.03a2.717 2.717 0 012.063-.833c.422-.011.84.098 1.203.317.305.203.477.55.457.914.012.515-.25.996-.687 1.261a3.163 3.163 0 01-1.719.458 2.85 2.85 0 01-.973-.172zm.23-.828c.204.058.415.085.63.085a2.08 2.08 0 001.004-.203c.285-.113.426-.285.426-.515 0-.258-.286-.399-.856-.399a1.175 1.175 0 00-.66.285 1.98 1.98 0 00-.543.746zm0 0M219.762 47.074a2.556 2.556 0 01-.942 1.578 3.172 3.172 0 01-1.836.543 2.514 2.514 0 01-1.515-.43 1.552 1.552 0 01-.574-1.234c.007-.16.027-.324.058-.484l.8-4.469h1.204l-.832 4.438a.727.727 0 00-.027.257.75.75 0 00.285.66c.195.176.453.27.719.258a1.44 1.44 0 001-.343c.27-.223.445-.54.488-.887l.828-4.383h1.176zm0 0M224.344 43.867a1.667 1.667 0 00-1.028-.375c-.718 0-1.09.258-1.09.805 0 .543.2.484.575.8l.687.575.426.398.23.344a.944.944 0 01.2.43c.062.148.09.304.086.46a1.57 1.57 0 01-.688 1.376 2.667 2.667 0 01-1.715.515 3.714 3.714 0 01-1.664-.37l.375-1.15c.407.302.899.462 1.403.462.27 0 .539-.07.773-.203a.691.691 0 00.316-.575c0-.257-.203-.543-.574-.828l-.687-.547-.43-.37-.258-.317a2.739 2.739 0 01-.172-.43c-.05-.144-.07-.3-.058-.457a1.805 1.805 0 01.574-1.402c.434-.383 1-.578 1.574-.547l.801.086c.246.02.488.078.719.172zm0 0M225.29 48.45a.692.692 0 01.202-.516.831.831 0 01.543-.2.809.809 0 01.516.2c.21.207.277.52.164.793a.715.715 0 01-.68.441.717.717 0 01-.543-.203.692.692 0 01-.203-.516zm1.233-1.263h-.601l.055-1.23c.003-.297.023-.594.058-.887.02-.254.059-.5.113-.746l.344-1.863h1.32l-.257 1.46c-.059.231-.203.747-.461 1.548zm0 0" fill="#64706b"/><path d="M25.488 8.023h4.352v16.618a4.414 4.414 0 001.203 3.207c.8.832 1.89 1.234 3.293 1.234 1.402 0 2.809-.402 3.695-1.203.887-.805 1.29-1.922 1.29-3.324V8.023h4.35v16.875c0 2.52-.831 4.5-2.519 5.903-1.691 1.402-3.953 2.148-6.757 2.148-2.81 0-5.043-.687-6.586-2.09-1.547-1.406-2.32-3.382-2.32-5.988zm0 0M47.367 31.172l1.602-3.895c1.718 1.203 3.379 1.805 5.043 1.805 2.574 0 3.836-.89 3.836-2.664a3.882 3.882 0 00-.887-2.406c-.602-.746-1.863-1.606-3.723-2.551-1.863-.945-3.152-1.719-3.808-2.32a5.953 5.953 0 01-1.492-2.149 6.938 6.938 0 01-.543-2.781 6.124 6.124 0 012.09-4.727c1.374-1.261 3.18-1.863 5.355-1.863 2.808 0 4.898.516 6.215 1.574l-1.317 3.754a8.143 8.143 0 00-4.84-1.633c-.992 0-1.765.258-2.32.774a2.839 2.839 0 00-.832 2.062c0 1.407 1.547 2.868 4.668 4.387 1.633.8 2.809 1.547 3.55 2.234a7.166 7.166 0 011.665 2.348c.379.957.562 1.98.543 3.008a6.062 6.062 0 01-2.348 4.902c-1.547 1.29-3.668 1.918-6.273 1.918a11.22 11.22 0 01-6.184-1.777zm0 0" fill="#8b9b92"/><path d="M70.191 23.523v8.997h-4.324V8.05c2.89-.144 4.582-.198 5.067-.198 3.867 0 6.703.601 8.476 1.804 1.778 1.203 2.692 3.035 2.692 5.559 0 5.613-3.293 8.422-9.934 8.422-.66-.004-1.32-.043-1.977-.114zm0-11.718v7.851c.579.07 1.16.11 1.746.114 1.977 0 3.438-.344 4.352-1.004.918-.657 1.375-1.746 1.375-3.239 0-2.52-2.062-3.808-6.129-3.808-.45 0-.898.027-1.344.086zm0 0M93.902 30.742a3.996 3.996 0 01-2.004 1.52 7.312 7.312 0 01-2.949.601c-1.922 0-3.437-.488-4.527-1.433-1.086-.946-1.66-2.348-1.66-4.125 0-1.778.773-3.696 2.32-4.871 1.547-1.176 3.781-1.747 6.645-1.747a6.754 6.754 0 011.718.258c0-2.12-1.32-3.152-3.98-3.152a8.995 8.995 0 00-3.953.773l-.887-3.238a11.805 11.805 0 015.125-1.031c2.719 0 4.727.601 5.984 1.863 1.262 1.262 1.918 3.582 1.918 7.047v3.84c0 2.379.489 3.898 1.434 4.5-.344.601-.715.973-1.145 1.117-.472.145-.968.211-1.46.2a2.416 2.416 0 01-1.633-.66 3.431 3.431 0 01-.946-1.462zm-.402-6.644a8.851 8.851 0 00-1.602-.203c-3.324 0-4.957 1.062-4.957 3.238 0 1.605.918 2.406 2.782 2.406 2.52 0 3.777-1.262 3.777-3.754zm0 0M103.125 32.52V18.05h-2.293v-3.437h6.5V32.52zm0 0M123.57 32.52V22.176c0-1.52-.316-2.637-.886-3.352-.575-.715-1.547-1.031-2.864-1.031a4.52 4.52 0 00-1.976.516 4.65 4.65 0 00-1.633 1.289V32.52h-4.18V14.613h3.004l.774 1.692c1.148-1.348 2.836-2.008 5.043-2.008 2.203 0 3.808.629 5.039 1.89 1.23 1.262 1.859 3.067 1.859 5.36V32.52zm0 0M132.707 17.992h-2.062v-3.379h2.062v-3.64l4.18-1.547v5.187h4.925v3.38h-4.925v7.823c0 1.29.199 2.204.601 2.72.403.519 1.117.804 2.117.804a5.192 5.192 0 002.81-.832v3.867c-.974.316-2.349.488-4.153.488-1.805 0-3.153-.488-4.094-1.52-.945-1.03-1.461-2.433-1.461-4.296zm0 0" fill="#8dc63f"/><path d="M144.563 31.172l1.601-3.895c1.719 1.203 3.41 1.805 5.07 1.805 2.547 0 3.836-.89 3.836-2.664a3.9 3.9 0 00-.914-2.406c-.601-.746-1.832-1.606-3.722-2.551-1.891-.945-3.121-1.719-3.782-2.32a6.446 6.446 0 01-1.52-2.149 7.443 7.443 0 01-.515-2.781 6.052 6.052 0 012.094-4.727c1.375-1.261 3.148-1.863 5.324-1.863 2.836 0 4.926.516 6.242 1.574l-1.316 3.754a8.276 8.276 0 00-4.84-1.633c-.992 0-1.766.258-2.32.774a2.694 2.694 0 00-.828 2.062c0 1.407 1.547 2.868 4.668 4.387 1.64.8 2.816 1.547 3.523 2.234a6.436 6.436 0 011.66 2.348c.39.957.582 1.977.57 3.008a6.04 6.04 0 01-2.347 4.902c-1.574 1.29-3.664 1.918-6.3 1.918a11.22 11.22 0 01-6.185-1.777zm0 0M174.344 32.547v-1.488a7.453 7.453 0 01-2.434 1.261 8.332 8.332 0 01-2.863.543c-4.152 0-6.215-2.207-6.215-6.617V14.613h4.152V25.93c0 2.293 1.032 3.437 3.121 3.437a4.807 4.807 0 002.637-.746 3.721 3.721 0 001.602-1.687v-12.32h4.183v17.933zm0 0M186.715 32.09v7.476h-4.18V14.613h4.18v1.203a5.329 5.329 0 013.867-1.52c5.7 0 8.563 3.126 8.563 9.427 0 2.922-.774 5.187-2.375 6.761-1.606 1.578-3.727 2.38-6.446 2.38a8.349 8.349 0 01-3.61-.774zm0-13.094v9.426c.758.601 1.7.926 2.664.918 1.918 0 3.32-.457 4.152-1.375.832-.918 1.262-2.38 1.262-4.356s-.402-3.609-1.262-4.468c-.86-.86-2.203-1.32-4.125-1.32a3.784 3.784 0 00-2.691 1.175zm0 0M206.504 32.09v7.476h-4.18V14.613h4.18v1.203a5.218 5.218 0 013.867-1.52c5.7 0 8.563 3.126 8.563 9.427 0 2.922-.801 5.187-2.38 6.761-1.574 1.578-3.722 2.38-6.468 2.38a8.218 8.218 0 01-3.582-.774zm0-13.094v9.426c.754.61 1.695.933 2.664.918 1.918 0 3.293-.457 4.152-1.375.86-.918 1.262-2.38 1.262-4.356s-.43-3.609-1.262-4.468c-.832-.86-2.207-1.32-4.152-1.32a3.672 3.672 0 00-2.664 1.175zm0 0M223.145 7.938l4.18-1.004v20.14c0 2.219.66 3.535 1.976 3.957-.66 1.23-1.746 1.832-3.324 1.832-1.575 0-2.832-1.316-2.832-3.953zm0 0M240.27 35.414c-.43 1.203-1.407 2.176-2.868 2.98a10.8 10.8 0 01-5.125 1.172v-3.695c3.239 0 4.84-.832 4.84-2.434 0-1.062-.457-2.722-1.344-4.93l-5.585-13.894h4.324l4.867 12.375 4.41-12.375h4.324zm0 0" fill="#f58426"/><path d="M9.105 6.676a4.554 4.554 0 11-9.105 0C0 4.156 4.84-.23 4.555 0c-.29.23 4.55 4.156 4.55 6.676zm0 0" fill="#8dc63f"/><path d="M9.105 17.336a4.554 4.554 0 11-9.105 0c0-2.52 2.04-4.559 4.555-4.559 2.511 0 4.55 2.04 4.55 4.559zm0 0" fill="#f58426"/><path d="M9.105 28.078a4.554 4.554 0 11-4.55-4.555c2.511 0 4.55 2.04 4.55 4.555zm0 0" fill="#8b9b92"/><path d="M21.535 6.676a4.554 4.554 0 11-9.105 0c0-2.52 4.867-6.906 4.55-6.676-.312.23 4.555 4.156 4.555 6.676zm0 0" fill="#8dc63f"/><path d="M109.195 6.676a4.555 4.555 0 11-9.11 0c0-2.52 4.84-6.906 4.556-6.676-.286.23 4.554 4.156 4.554 6.676zm0 0M21.535 17.336a4.554 4.554 0 11-9.105 0c0-2.52 2.039-4.559 4.55-4.559a4.555 4.555 0 014.555 4.559zm0 0" fill="#f58426"/><path d="M21.535 28.078a4.554 4.554 0 11-9.105 0 4.554 4.554 0 119.105 0zm0 0" fill="#8b9b92"/></svg>